<svg xmlns="http://www.w3.org/2000/svg"  viewBox="0 0 48 48" width="96px" height="96px"><path fill="#6c19ff" d="M10.093,8.76c0,0,6.08,3.869,7.738,7.185c0,0-9.68-0.136-16.83,7.567c0,0,7.435,1.276,12.437,5.121 c0,0-7.391,2.355-8.871,10.525c0,0,12.296-4.297,20.708,0.883c0,0,17.473,1.467,20.129-8.869c1.915-7.455-1.089-11.579-4.36-15.226 C41.043,15.946,29.381-0.331,10.093,8.76z"/><path fill="#6c19ff" d="M43.006,22.011c0,0,4.601-3.792,3.937-9.502c0,0-5.083-1.824-9.937,1.513L43.006,22.011z"/><path fill="#fff" d="M28.834,19.511c6.099,0,4.83,12.004,8.157,12.004c2.218,0,5.199-6.86,6.308-6.86 c1.224,0,0.467,10.643-4.352,11.249l-10.928,0.649l-1.957-3.652C21.86,30.747,22.181,19.511,28.834,19.511z"/><path fill="#fac8d5" d="M21.007,34.944c0-1.322,0.773-3.227,3.112-3.227s3.303,2.638,6.411,3.342 c1.951,0.442,6.808-0.972,8.589-0.28c1.208,0.47,2.109,1.224,1.922,2.316c-0.557,3.264-5.213,4.956-10.578,4.956 C22.464,42.051,21.007,36.854,21.007,34.944z"/><path fill="#2100c4" d="M31.105,28.993c-0.426,1.885-1.423,3.263-2.228,3.077c-0.804-0.186-1.111-1.864-0.685-3.749 c0.426-1.885,1.423-3.263,2.228-3.077C31.224,25.429,31.531,27.108,31.105,28.993z"/><path fill="#2100c4" d="M38.309,30.876c-0.254,1.139-0.19,2.084,0.218,2.306c0.531,0.29,1.436-0.754,2.02-2.332 c0.499-1.347,0.6-2.641,0.289-3.173C40.036,28.874,39.156,30.139,38.309,30.876z"/><path fill="#eb0000" d="M25.523,35.147c0,0,1.552,2.778,5.202,3.049c0,0-0.633,1.524-3.085,1.524 S24.371,37.114,25.523,35.147z"/><path fill="#2100c4" d="M42.844,37.429c-1.494,0.878-3.036,0.727-3.444-0.338c-0.408-1.065,0.472-2.641,1.967-3.519 c1.494-0.878,3.036-0.727,3.444,0.338C45.218,34.975,44.338,36.55,42.844,37.429z"/><path fill="#2100c4" d="M26.437,15.765c3.427-0.866,5.879-0.177,5.879-0.177c-1.544-5.159-7.777-6.904-7.777-6.904 s-3.507,4.049-2.997,9.269C22.274,17.396,23.819,16.427,26.437,15.765z"/><path fill="#2100c4" d="M44.423,20.515c-0.913-1.699-2.125-3.17-3.38-4.569c0,0-0.874-1.214-2.527-2.791 c-0.502,0.243-1.007,0.521-1.51,0.867l6,7.989C43.006,22.011,43.651,21.479,44.423,20.515z"/></svg>